<?xml version="1.0" encoding="UTF-8"?>
<svg id="b" data-name="Layer 2" xmlns="http://www.w3.org/2000/svg" viewBox="0 0 304.2 83.97">
  <defs>
    <style>
      .d {
        fill: #fcfcfc;
      }
    </style>
  </defs>
  <g id="c" data-name="Layer 1">
    <g>
      <path class="d" d="M16.57,83.89c-4.96.02-9.77-.01-14.58.08-1.44.03-1.97-.35-1.99-1.9-.06-4.76.63-9.51.19-14.28-.08-.9.35-1.33,1.27-1.33,1.76,0,3.52,0,5.27-.05.97-.02,1.24.47,1.23,1.35-.02,2.28.02,4.56-.02,6.83-.02.99.32,1.39,1.34,1.38,3.77-.04,7.55-.04,11.33,0,1.1.01,1.52-.44,1.42-1.48-.38-3.82-.28-7.65-.3-11.48,0-.93-.58-1.4-1.23-1.83-4.68-3.09-9.37-6.17-14.05-9.26-1.76-1.16-3.52-2.32-5.26-3.52-.66-.45-1.05-1.05-1.05-1.94-.02-7.71-.06-15.43-.14-23.14-.01-1.08.38-1.44,1.45-1.44,8.69.03,17.38.03,26.06,0,.97,0,1.44.33,1.44,1.32.03,4.45.07,8.9.13,13.36,0,.8-.36,1.11-1.13,1.1-1.65-.02-3.31-.03-4.96.01-.95.02-1.28-.4-1.26-1.31.03-1.66-.04-3.31,0-4.97.03-1.24-.53-1.83-1.75-1.83-3.62,0-7.24,0-10.86-.01-.85,0-1.21.36-1.22,1.21-.02,3.99-.07,7.97-.11,11.96,0,.64.31,1,.84,1.35,4.91,3.22,9.79,6.48,14.67,9.73,1.67,1.11,3.29,2.3,5,3.35.65.4.77.86.77,1.52,0,7.87-.02,15.74.03,23.61,0,1.33-.62,1.56-1.7,1.57-3.57,0-7.14.03-10.86.05Z"/>
      <g>
        <path class="d" d="M114.04,38.27c1.51,1.6,3.86,3.01,6.91,3.01s4.39-1.54,4.39-2.98c0-1.96-2.33-2.55-4.98-3.24-3.57-.88-7.76-1.93-7.76-6.55,0-3.6,3.18-6.38,7.96-6.38,3.41,0,6.16,1.08,8.19,3.04l-2.19,2.85c-1.7-1.7-4.03-2.49-6.32-2.49s-3.7,1.08-3.7,2.72,2.23,2.26,4.81,2.91c3.6.92,7.89,2.03,7.89,6.78,0,3.63-2.55,6.74-8.45,6.74-4.03,0-6.94-1.41-8.87-3.47l2.13-2.95Z"/>
        <path class="d" d="M139.71,28.09c4.75,0,7.79,3.63,7.79,8.61v.82h-12.21c.26,2.39,2.06,4.35,5.04,4.35,1.54,0,3.37-.62,4.48-1.74l1.57,2.26c-1.57,1.51-3.9,2.29-6.42,2.29-4.75,0-8.28-3.31-8.28-8.32,0-4.58,3.34-8.28,8.02-8.28ZM135.25,35.09h8.91c-.07-1.87-1.34-4.19-4.45-4.19-2.95,0-4.29,2.26-4.45,4.19Z"/>
        <path class="d" d="M150.9,44.29v-15.81h3.44v2.32c1.18-1.51,3.08-2.68,5.14-2.68v3.4c-.29-.07-.65-.1-1.08-.1-1.44,0-3.37.98-4.06,2.1v10.77h-3.44Z"/>
        <path class="d" d="M162.26,44.29v-15.81h3.44v2.32c1.18-1.51,3.08-2.68,5.14-2.68v3.4c-.29-.07-.65-.1-1.08-.1-1.44,0-3.37.98-4.06,2.1v10.77h-3.44Z"/>
        <path class="d" d="M183.28,44.29v-1.7c-1.18,1.34-3.01,2.1-5.11,2.1-2.59,0-5.5-1.74-5.5-5.24s2.91-5.14,5.5-5.14c2.13,0,3.96.69,5.11,2.03v-2.36c0-1.83-1.51-2.95-3.7-2.95-1.77,0-3.31.65-4.68,2l-1.41-2.39c1.83-1.74,4.13-2.55,6.65-2.55,3.5,0,6.58,1.47,6.58,5.73v10.48h-3.44ZM183.28,38.3c-.79-1.08-2.26-1.64-3.77-1.64-1.93,0-3.37,1.11-3.37,2.85s1.44,2.82,3.37,2.82c1.51,0,2.98-.56,3.77-1.64v-2.39Z"/>
        <path class="d" d="M207.11,33.39c0-6.71,5.01-11.3,11.29-11.3,4.58,0,7.3,2.29,8.94,4.91l-3.27,1.67c-1.05-1.8-3.14-3.18-5.66-3.18-4.16,0-7.37,3.31-7.37,7.89s3.21,7.89,7.37,7.89c2.52,0,4.62-1.34,5.66-3.18l3.27,1.67c-1.67,2.62-4.35,4.91-8.94,4.91-6.29,0-11.29-4.58-11.29-11.3Z"/>
        <path class="d" d="M237.36,28.09c4.75,0,7.79,3.63,7.79,8.61v.82h-12.21c.26,2.39,2.06,4.35,5.04,4.35,1.54,0,3.37-.62,4.48-1.74l1.57,2.26c-1.57,1.51-3.9,2.29-6.42,2.29-4.75,0-8.28-3.31-8.28-8.32,0-4.58,3.34-8.28,8.02-8.28ZM232.9,35.09h8.91c-.07-1.87-1.34-4.19-4.45-4.19-2.95,0-4.29,2.26-4.45,4.19Z"/>
        <path class="d" d="M259.22,44.29v-9.89c0-2.46-1.24-3.27-3.18-3.27-1.77,0-3.27,1.05-4.06,2.13v11.03h-3.44v-15.81h3.44v2.16c1.05-1.24,3.08-2.55,5.57-2.55,3.4,0,5.11,1.83,5.11,5.07v11.13h-3.44Z"/>
        <path class="d" d="M267.8,40.63v-9.13h-2.62v-3.01h2.62v-4.32h3.44v4.32h3.21v3.01h-3.21v8.28c0,1.08.52,1.87,1.51,1.87.65,0,1.28-.26,1.54-.56l.82,2.59c-.62.59-1.64,1.02-3.24,1.02-2.65,0-4.06-1.44-4.06-4.06Z"/>
        <path class="d" d="M277.55,44.29v-15.81h3.44v2.32c1.18-1.51,3.08-2.68,5.14-2.68v3.4c-.29-.07-.65-.1-1.08-.1-1.44,0-3.37.98-4.06,2.1v10.77h-3.44Z"/>
        <path class="d" d="M287.93,36.37c0-4.52,3.11-8.28,8.12-8.28s8.15,3.77,8.15,8.28-3.08,8.32-8.15,8.32-8.12-3.77-8.12-8.32ZM300.63,36.37c0-2.78-1.64-5.24-4.58-5.24s-4.55,2.46-4.55,5.24,1.64,5.27,4.55,5.27,4.58-2.46,4.58-5.27Z"/>
        <path class="d" d="M113.32,61.74h3.86v13.1c0,3.47,1.93,5.73,5.6,5.73s5.57-2.26,5.57-5.73v-13.1h3.86v13.19c0,5.43-3.11,9.04-9.43,9.04s-9.46-3.63-9.46-9v-13.23Z"/>
        <path class="d" d="M136.76,83.58v-15.81h3.44v2.32c1.18-1.51,3.08-2.68,5.14-2.68v3.4c-.29-.07-.65-.1-1.08-.1-1.44,0-3.37.98-4.06,2.1v10.77h-3.44Z"/>
        <path class="d" d="M148.12,83.58v-21.84h3.44v8.22c1.24-1.67,3.08-2.59,5.07-2.59,4.06,0,7.01,3.21,7.01,8.32s-2.98,8.28-7.01,8.28c-2.06,0-3.86-.98-5.07-2.55v2.16h-3.44ZM151.56,78.83c.75,1.18,2.46,2.1,4.06,2.1,2.75,0,4.48-2.16,4.48-5.24s-1.74-5.27-4.48-5.27c-1.6,0-3.31.98-4.06,2.16v6.25Z"/>
        <path class="d" d="M176.8,83.58v-1.7c-1.18,1.34-3.01,2.1-5.11,2.1-2.59,0-5.5-1.74-5.5-5.24s2.91-5.14,5.5-5.14c2.13,0,3.96.69,5.11,2.03v-2.36c0-1.83-1.51-2.95-3.7-2.95-1.77,0-3.31.65-4.68,2l-1.41-2.39c1.83-1.74,4.13-2.55,6.65-2.55,3.5,0,6.58,1.47,6.58,5.73v10.48h-3.44ZM176.8,77.58c-.79-1.08-2.26-1.64-3.77-1.64-1.93,0-3.37,1.11-3.37,2.85s1.44,2.82,3.37,2.82c1.51,0,2.98-.56,3.77-1.64v-2.39Z"/>
        <path class="d" d="M195.36,83.58v-9.89c0-2.46-1.24-3.27-3.18-3.27-1.77,0-3.27,1.05-4.06,2.13v11.03h-3.44v-15.81h3.44v2.16c1.05-1.24,3.08-2.55,5.57-2.55,3.4,0,5.11,1.83,5.11,5.07v11.13h-3.44Z"/>
        <path class="d" d="M202.26,75.65c0-4.52,3.11-8.28,8.12-8.28s8.15,3.77,8.15,8.28-3.08,8.32-8.15,8.32-8.12-3.77-8.12-8.32ZM214.97,75.65c0-2.78-1.64-5.24-4.58-5.24s-4.55,2.46-4.55,5.24,1.64,5.27,4.55,5.27,4.58-2.46,4.58-5.27Z"/>
      </g>
      <path class="d" d="M53.72,76.4h-11.27c0-23.49,0-36.1,0-59.48.06-.88-.15-1.66.3-2.45.6.37,1.15.66,1.63,1.03,3.12,2.43,6.2,4.91,9.34,7.31l4.06-6.07c-2.19-1.67-4.37-3.34-6.55-5.02-3.8-2.92-7.54-5.9-11.38-8.75-1.35-1-2.57-2.27-4.44-2.98,0,.9,0,1.51,0,2.12,0,27.91.02,45.16.03,73.08,0,2.38.03,4.76.06,7.15,0,.61-.09,1.37.82,1.39,1.09.02,2.17.02,3.28.02,0,0,0,0,0,0h14.12c.67,0,1.22-.54,1.22-1.22v-4.92c0-.67-.54-1.22-1.22-1.22Z"/>
      <path class="d" d="M91.12,22.1h-6.3c-.69.17-.69.68-.69,2.18,0,9.06,0,18.12,0,27.19,0,7.61,0,15.22.01,22.84,0,1.11-.12,1.83-1.86,1.65-4.98-.54-10.02-.69-14.99-.03-1.41.19-1.98-.11-2-1.22-.03-1.5-.17-3-.17-4.5-.02-14.34-.02-28.69-.02-43.03,0-1.24.02-2.51.04-3.77.01-.72-.56-1.31-1.28-1.31h-4.47c-.71,0-1.29.58-1.28,1.29.07,17.4.18,34.8.28,52.2.01,1.81.07,3.62.24,5.43.24,2.67.19,2.61,2.84,2.68,9.41.25,18.82.24,28.23.26,2.04,0,2.05,0,2.04-2.09-.1-11.7.09-23.4-.19-35.1-.18-7.66.07-15.32.21-22.98.02-.91-.17-1.43-.64-1.67Z"/>
    </g>
  </g>
</svg>
